HIERARCHY
ROOT hip
{
  OFFSET 0 0 0
  CHANNELS 6 Xposition Yposition Zposition Zrotation Yrotation Xrotation
  JOINT abdomen
  {
    OFFSET 0 20.6881 -0.73152
    CHANNELS 3 Zrotation Xrotation Yrotation
    JOINT chest
    {
      OFFSET 0 11.7043 -0.48768
      CHANNELS 3 Zrotation Xrotation Yrotation
      JOINT neck
      {
        OFFSET 0 22.1894 -2.19456
        CHANNELS 3 Zrotation Xrotation Yrotation
        JOINT head
        {
          OFFSET -0.24384 7.07133 1.2192
          CHANNELS 3 Zrotation Xrotation Yrotation
          JOINT leftEye
          {
            OFFSET 4.14528 8.04674 8.04672
            CHANNELS 3 Zrotation Xrotation Yrotation
            End Site
            {
              OFFSET 1 0 0
            }
          }
          JOINT rightEye
          {
            OFFSET -3.6576 8.04674 8.04672
            CHANNELS 3 Zrotation Xrotation Yrotation
            End Site
            {
              OFFSET 1 0 0
            }
          }
        }
      }
      JOINT rCollar
      {
        OFFSET -2.68224 19.2634 -4.8768
        CHANNELS 3 Zrotation Xrotation Yrotation
        JOINT rShldr
        {
          OFFSET -8.77824 -1.95073 1.46304
          CHANNELS 3 Zrotation Xrotation Yrotation
          JOINT rForeArm
          {
            OFFSET -28.1742 -1.7115 0.48768
            CHANNELS 3 Zrotation Xrotation Yrotation
            JOINT rHand
            {
              OFFSET -22.5879 0.773209 7.07136
              CHANNELS 3 Zrotation Xrotation Yrotation
              JOINT rThumb1
              {
                OFFSET -1.2192 -0.487915 3.41376
                CHANNELS 3 Zrotation Xrotation Yrotation
                JOINT rThumb2
                {
                  OFFSET -3.37035 -0.52449 3.41376
                  CHANNELS 3 Zrotation Xrotation Yrotation
                  End Site
                  {
                    OFFSET -1.78271 -1.18214 1.43049
                  }
                }
              }
              JOINT rIndex1
              {
                OFFSET -7.75947 0.938293 5.60832
                CHANNELS 3 Zrotation Xrotation Yrotation
                JOINT rIndex2
                {
                  OFFSET -2.54057 -0.884171 1.56538
                  CHANNELS 3 Zrotation Xrotation Yrotation
                  End Site
                  {
                    OFFSET -1.62519 -0.234802 1.16502
                  }
                }
              }
              JOINT rMid1
              {
                OFFSET -8.24714 1.18213 3.41376
                CHANNELS 3 Zrotation Xrotation Yrotation
                JOINT rMid2
                {
                  OFFSET -3.10165 -0.590103 1.0647
                  CHANNELS 3 Zrotation Xrotation Yrotation
                  End Site
                  {
                    OFFSET -2.48547 -0.328903 0.83742
                  }
                }
              }
              JOINT rRing1
              {
                OFFSET -8.82822 0.546677 1.51678
                CHANNELS 3 Zrotation Xrotation Yrotation
                JOINT rRing2
                {
                  OFFSET -2.60934 -0.819778 -0.0198488
                  CHANNELS 3 Zrotation Xrotation Yrotation
                  End Site
                  {
                    OFFSET -2.33842 -0.294052 0.168128
                  }
                }
              }
              JOINT rPinky1
              {
                OFFSET -8.27202 -0.0477905 -0.4584
                CHANNELS 3 Zrotation Xrotation Yrotation
                JOINT rPinky2
                {
                  OFFSET -1.82734 -0.647385 -0.700984
                  CHANNELS 3 Zrotation Xrotation Yrotation
                  End Site
                  {
                    OFFSET -1.69225 -0.51767 -0.607171
                  }
                }
              }
            }
          }
        }
      }
      JOINT lCollar
      {
        OFFSET 2.68224 19.2634 -4.8768
        CHANNELS 3 Zrotation Xrotation Yrotation
        JOINT lShldr
        {
          OFFSET 8.77824 -1.95073 1.46304
          CHANNELS 3 Zrotation Xrotation Yrotation
          JOINT lForeArm
          {
            OFFSET 28.1742 -1.7115 0.48768
            CHANNELS 3 Zrotation Xrotation Yrotation
            JOINT lHand
            {
              OFFSET 22.5879 0.773209 7.07136
              CHANNELS 3 Zrotation Xrotation Yrotation
              JOINT lThumb1
              {
                OFFSET 1.2192 -0.487915 3.41376
                CHANNELS 3 Zrotation Xrotation Yrotation
                JOINT lThumb2
                {
                  OFFSET 3.37035 -0.52449 3.41376
                  CHANNELS 3 Zrotation Xrotation Yrotation
                  End Site
                  {
                    OFFSET 1.78271 -1.18214 1.43049
                  }
                }
              }
              JOINT lIndex1
              {
                OFFSET 7.75947 0.938293 5.60832
                CHANNELS 3 Zrotation Xrotation Yrotation
                JOINT lIndex2
                {
                  OFFSET 2.54057 -0.884171 1.56538
                  CHANNELS 3 Zrotation Xrotation Yrotation
                  End Site
                  {
                    OFFSET 1.62519 -0.234802 1.16502
                  }
                }
              }
              JOINT lMid1
              {
                OFFSET 8.24714 1.18213 3.41376
                CHANNELS 3 Zrotation Xrotation Yrotation
                JOINT lMid2
                {
                  OFFSET 3.10165 -0.590103 1.0647
                  CHANNELS 3 Zrotation Xrotation Yrotation
                  End Site
                  {
                    OFFSET 2.48547 -0.328903 0.83742
                  }
                }
              }
              JOINT lRing1
              {
                OFFSET 8.82822 0.546677 1.51678
                CHANNELS 3 Zrotation Xrotation Yrotation
                JOINT lRing2
                {
                  OFFSET 2.60934 -0.819778 -0.0198488
                  CHANNELS 3 Zrotation Xrotation Yrotation
                  End Site
                  {
                    OFFSET 2.33842 -0.294052 0.168128
                  }
                }
              }
              JOINT lPinky1
              {
                OFFSET 8.27202 -0.0477905 -0.4584
                CHANNELS 3 Zrotation Xrotation Yrotation
                JOINT lPinky2
                {
                  OFFSET 1.82734 -0.647385 -0.700984
                  CHANNELS 3 Zrotation Xrotation Yrotation
                  End Site
                  {
                    OFFSET 1.69225 -0.51767 -0.607171
                  }
                }
              }
            }
          }
        }
      }
    }
  }
  JOINT rButtock
  {
    OFFSET -8.77824 4.35084 1.2192
    CHANNELS 3 Zrotation Xrotation Yrotation
    JOINT rThigh
    {
      OFFSET 0 -1.70687 -2.19456
      CHANNELS 3 Zrotation Xrotation Yrotation
      JOINT rShin
      {
        OFFSET 0 -36.8199 0.73152
        CHANNELS 3 Zrotation Xrotation Yrotation
        JOINT rFoot
        {
          OFFSET 0.73152 -45.1104 -5.12064
          CHANNELS 3 Zrotation Xrotation Yrotation
          End Site
          {
            OFFSET -1.1221 -3.69964 12.103
          }
        }
      }
    }
  }
  JOINT lButtock
  {
    OFFSET 8.77824 4.35084 1.2192
    CHANNELS 3 Zrotation Xrotation Yrotation
    JOINT lThigh
    {
      OFFSET 0 -1.70687 -2.19456
      CHANNELS 3 Zrotation Xrotation Yrotation
      JOINT lShin
      {
        OFFSET 0 -36.8199 0.73152
        CHANNELS 3 Zrotation Xrotation Yrotation
        JOINT lFoot
        {
          OFFSET -0.73152 -45.1104 -5.12064
          CHANNELS 3 Zrotation Xrotation Yrotation
          End Site
          {
            OFFSET 1.1221 -3.69964 12.103
          }
        }
      }
    }
  }
}
MOTION
Frames:	4
Frame Time:	0.00833333
66.8858 80.7502 -21.4443 9.3045 -85.7166 10.3895 -7.93893 40.8725 10.2876 -3.29088 -6.28083 0.779173 3.2957 11.1017 11.596 -26.33 -24.5729 17.0557 -0.0 0.0 0.0 -0.0 0.0 0.0 2.51473e-14 -2.33283e-13 -3.84338e-14 63.1115 1.30131 -21.2169 -28.37 -33.7477 73.2814 -0.868659 -25.4638 -3.83795 3.64575e-10 -4.4337e-09 4.77012e-09 5.40787e-10 -7.75195e-09 8.2464e-09 3.64577e-10 -4.43369e-09 4.7701e-09 7.73091 5.47488 0.417314 3.64574e-10 -4.43369e-09 4.77012e-09 2.90554 0.965183 0.102902 3.64583e-10 -4.43369e-09 4.77012e-09 10.2786 0.731801 0.0259123 3.64579e-10 -4.43369e-09 4.77012e-09 2.22167 -0.733487 -0.20892 2.50475e-14 -2.33289e-13 -3.87261e-14 -68.3775 21.6934 4.47825 28.4198 -36.5353 -77.9085 0.00034069 -0.473355 0.0664958 3.05632e-09 -4.99498e-09 -5.95263e-09 5.2802e-09 -8.63293e-09 -1.02922e-08 3.05631e-09 -4.99497e-09 -5.95262e-09 -7.73091 5.47488 -0.417314 3.05633e-09 -4.99498e-09 -5.95263e-09 -2.90554 0.965183 -0.102902 3.05632e-09 -4.99498e-09 -5.95263e-09 -10.2786 0.731801 -0.0259123 3.05632e-09 -4.99498e-09 -5.95264e-09 -2.22167 -0.733487 0.20892 -2.03217e-16 0.0 -3.88251e-19 5.45051 -45.084 1.74784 -0.143965 40.9001 1.45668 -3.70155 -14.6527 -10.3686 2.03217e-16 0.0 3.88251e-19 3.56589 -59.7361 -26.4994 0.713154 51.5687 -0.879341 0.990331 17.7418 -2.57052
67.0951 80.5939 -21.5049 9.1834 -85.9571 10.54 -8.022 40.6509 10.3973 -3.1646 -6.18053 0.822713 3.24925 10.8967 11.5851 -26.195 -24.3381 17.1094 -0.0 0.0 0.0 -0.0 0.0 0.0 1.68206e-13 1.54661e-13 -8.07749e-14 61.6016 0.694769 -21.5434 -28.3852 -34.0089 73.7139 -0.904091 -25.9362 -3.91986 6.99322e-11 -1.75223e-09 1.59029e-09 9.4796e-11 -3.0508e-09 2.74931e-09 6.99307e-11 -1.75223e-09 1.59027e-09 7.73091 5.47488 0.417314 6.9932e-11 -1.75223e-09 1.59029e-09 2.90554 0.965183 0.102902 6.99421e-11 -1.75223e-09 1.59029e-09 10.2786 0.731801 0.0259123 6.99348e-11 -1.75223e-09 1.59029e-09 2.22167 -0.733487 -0.20892 1.68149e-13 1.54648e-13 -8.107e-14 -68.8851 20.6606 5.66326 28.4167 -36.6254 -78.0605 0.00127402 -1.13416 0.159378 1.97939e-09 -3.06785e-09 -3.1423e-09 3.42045e-09 -5.30409e-09 -5.43599e-09 1.97938e-09 -3.06784e-09 -3.14229e-09 -7.73091 5.47488 -0.417314 1.97939e-09 -3.06785e-09 -3.1423e-09 -2.90554 0.965183 -0.102902 1.97939e-09 -3.06785e-09 -3.14231e-09 -10.2786 0.731801 -0.0259123 1.97939e-09 -3.06785e-09 -3.14231e-09 -2.22167 -0.733487 0.20892 -2.03217e-16 0.0 -3.88251e-19 5.55351 -45.6838 1.76072 -0.162086 41.4521 1.44956 -3.61561 -14.4098 -10.1753 2.03217e-16 0.0 3.88251e-19 4.02376 -59.4617 -25.7688 0.705217 51.2649 -0.849031 0.758852 17.2931 -1.38953
67.2284 80.496 -21.5605 10.2601 -86.1627 9.346 -8.10431 40.4467 10.4611 -3.01659 -6.07657 0.854638 3.16296 10.6493 11.5554 -25.9817 -24.0669 17.1505 -0.0 0.0 0.0 -0.0 0.0 0.0 2.93177e-13 5.33311e-13 -1.13453e-13 59.958 0.0881211 -21.8636 -28.4002 -34.3169 74.2253 -0.933303 -26.3262 -3.98771 -2.04843e-10 9.56426e-10 -1.55849e-09 -3.17703e-10 1.69592e-09 -2.69364e-09 -2.04848e-10 9.56423e-10 -1.55851e-09 7.73091 5.47488 0.417314 -2.04843e-10 9.56423e-10 -1.5585e-09 2.90554 0.965183 0.102902 -2.04831e-10 9.56425e-10 -1.55849e-09 10.2786 0.731801 0.0259123 -2.04842e-10 9.56426e-10 -1.55849e-09 2.22167 -0.733487 -0.20892 2.93158e-13 5.33293e-13 -1.13753e-13 -69.1888 19.626 6.69714 28.4132 -36.7197 -78.2203 0.00314953 -1.7128 0.240766 7.87347e-10 -9.84144e-10 -2.0949e-10 1.36166e-09 -1.70449e-09 -3.67689e-10 7.8734e-10 -9.84142e-10 -2.09482e-10 -7.73091 5.47488 -0.417314 7.87347e-10 -9.84144e-10 -2.0949e-10 -2.90554 0.965183 -0.102902 7.87345e-10 -9.84144e-10 -2.0949e-10 -10.2786 0.731801 -0.0259123 7.87344e-10 -9.84145e-10 -2.09502e-10 -2.22167 -0.733487 0.20892 -2.03217e-16 0.0 -3.88251e-19 5.58421 -46.288 1.75387 -0.180124 42.0037 1.44425 -3.54707 -14.1635 -10.0324 2.03217e-16 0.0 3.88251e-19 4.36532 -59.2178 -25.1552 0.694814 50.9145 -0.822578 0.588972 16.8245 -0.465714
67.374 80.4178 -21.6171 14.0516 -86.4314 5.5352 -8.1261 40.365 10.4665 -2.87788 -6.00299 0.871512 3.06406 10.3632 11.4782 -25.7236 -23.6825 17.1232 -0.0 0.0 0.0 -0.0 0.0 0.0 3.4669e-13 7.71095e-13 -1.16687e-13 58.2209 -0.556629 -22.2089 -28.4154 -34.6558 74.7769 -0.962838 -26.7071 -4.05456 -3.62939e-10 2.55494e-09 -3.35216e-09 -5.55982e-10 4.49465e-09 -5.79402e-09 -3.62945e-10 2.55494e-09 -3.35218e-09 7.73091 5.47488 0.417314 -3.62939e-10 2.55494e-09 -3.35217e-09 2.90554 0.965183 0.102902 -3.62927e-10 2.55494e-09 -3.35216e-09 10.2786 0.731801 0.0259123 -3.62941e-10 2.55494e-09 -3.35216e-09 2.22167 -0.733487 -0.20892 3.46694e-13 7.71077e-13 -1.16985e-13 -69.191 18.6811 7.56 28.4093 -36.8136 -78.3795 0.00568652 -2.15263 0.302677 -4.58413e-11 3.69402e-10 1.57755e-09 -7.74282e-11 6.33929e-10 2.72086e-09 -4.58453e-11 3.69403e-10 1.57756e-09 -7.73091 5.47488 -0.417314 -4.58423e-11 3.69402e-10 1.57755e-09 -2.90554 0.965183 -0.102902 -4.58444e-11 3.69403e-10 1.57755e-09 -10.2786 0.731801 -0.0259123 -4.58447e-11 3.69402e-10 1.57754e-09 -2.22167 -0.733487 0.20892 -2.03217e-16 0.0 -3.88251e-19 5.47861 -46.7967 1.64578 -0.197809 42.5624 1.44263 -3.50316 -13.9842 -9.92612 2.03217e-16 0.0 3.88251e-19 4.48143 -58.9478 -24.781 0.684265 50.5708 -0.800361 0.466601 16.3043 0.259171
